<svg id="Layer_1" data-name="Layer 1" xmlns="http://www.w3.org/2000/svg" xmlns:xlink="http://www.w3.org/1999/xlink" viewBox="0 0 232.25 145.17"><title>rexlabs.</title><desc>Created with Sketch.</desc><defs></defs><g id="Page-1" stroke="black" stroke-width="1" fill="black" ><g id="Desktop-HD-Copy-4" transform="translate(-120.000000, -120.000000)" fill="#000000"><path d="M136.292,192.312 L136.292,199.28 C135.512,199.124 134.836,199.072 134.212,199.072 C130.676,199.072 127.608,200.788 127.608,206.3 L127.608,218 L120.692,218 L120.692,192.416 L127.4,192.416 L127.4,196.212 C128.96,192.832 132.496,192.208 134.68,192.208 C135.252,192.208 135.772,192.26 136.292,192.312 Z M143.864,202.296 L155.304,202.296 C155.2,199.748 153.536,197.252 149.584,197.252 C145.996,197.252 144.02,199.956 143.864,202.296 Z M155.98,208.952 L161.752,210.668 C160.452,215.088 156.396,218.78 150.104,218.78 C143.084,218.78 136.896,213.736 136.896,205.104 C136.896,196.94 142.928,191.636 149.48,191.636 C157.384,191.636 162.116,196.68 162.116,204.896 C162.116,205.884 162.012,206.924 162.012,207.028 L143.708,207.028 C143.864,210.408 146.724,212.852 150.156,212.852 C153.38,212.852 155.148,211.24 155.98,208.952 Z M161.992,218 L171.092,205.156 L161.992,192.416 L170.208,192.416 C171.092,193.82 174.42,198.604 175.304,200.008 L180.348,192.416 L188.2,192.416 L179.256,204.948 L188.512,218 L180.4,218 L175.044,210.148 C174.108,211.552 170.676,216.596 169.792,218 L161.992,218 Z M197.54,218 L190.624,218 L190.624,180.352 L197.54,180.352 L197.54,218 Z M201.108,211.032 C201.108,206.456 204.488,203.908 208.752,203.284 L215.044,202.348 C216.5,202.14 216.968,201.412 216.968,200.528 C216.968,198.708 215.564,197.2 212.652,197.2 C209.636,197.2 207.972,199.124 207.764,201.36 L201.628,200.06 C202.044,196.056 205.736,191.636 212.6,191.636 C220.712,191.636 223.728,196.212 223.728,201.36 L223.728,213.944 C223.728,215.296 223.884,217.116 224.04,218 L217.696,218 C217.54,217.324 217.436,215.92 217.436,214.932 C216.136,216.96 213.692,218.728 209.896,218.728 C204.436,218.728 201.108,215.036 201.108,211.032 Z M211.352,213.58 C214.264,213.58 216.968,212.176 216.968,207.652 L216.968,206.508 L211.196,207.392 C209.428,207.652 208.024,208.64 208.024,210.616 C208.024,212.124 209.116,213.58 211.352,213.58 Z M235.304,218 L228.596,218 L228.596,180.352 L235.408,180.352 L235.408,195.224 C236.552,193.404 239.36,191.74 243.156,191.74 C250.644,191.74 254.96,197.512 254.96,205.104 C254.96,212.852 250.176,218.624 242.896,218.624 C239.36,218.624 236.656,217.064 235.304,214.88 L235.304,218 Z M248.044,205.156 C248.044,200.476 245.236,197.928 241.7,197.928 C238.216,197.928 235.304,200.476 235.304,205.156 C235.304,209.784 238.216,212.436 241.7,212.436 C245.236,212.436 248.044,209.836 248.044,205.156 Z M256.136001,210.876 L262.064001,209.576 C262.220001,211.604 263.728001,213.476 266.744001,213.476 C269.032001,213.476 270.124001,212.28 270.124001,210.928 C270.124001,209.784 269.344001,208.848 267.368001,208.432 L263.988001,207.652 C259.048001,206.56 256.812001,203.596 256.812001,200.008 C256.812001,195.432 260.868001,191.636 266.380001,191.636 C273.660001,191.636 276.104001,196.264 276.416001,199.02 L270.644001,200.32 C270.436001,198.812 269.344001,196.888 266.432001,196.888 C264.612001,196.888 263.156001,197.98 263.156001,199.436 C263.156001,200.684 264.092001,201.464 265.496001,201.724 L269.136001,202.504 C274.180001,203.544 276.728001,206.612 276.728001,210.356 C276.728001,214.516 273.504001,218.78 266.796001,218.78 C259.100001,218.78 256.448001,213.788 256.136001,210.876 Z M279.828001,213.632 C279.828001,211.032 281.960001,208.9 284.560001,208.9 C287.212001,208.9 289.344001,211.032 289.344001,213.632 C289.344001,216.232 287.212001,218.364 284.560001,218.364 C281.960001,218.364 279.828001,216.232 279.828001,213.632 Z" id="rexlabs."></path></g></g></svg>